:SAMPLES-PER-SECOND 30
:FRAME-RANGE 1-744
:FULLY-SPECIFIED
:DEGREES
675
root  -66.4306 40.1036 -28.9275 -149.406 77.3382 -140.985
RightUpLeg  7.03943 7.78159 8.70827
RightLeg  -0.104126 24.9665 -7.40811
RightFoot  -9.93836 -0.324461 20.7236
RightToes  5.82063e-011 0 -3.6325e-017
Spine  15.9253 2.94 1.7016
Spine1  -1.53796 4.64565 -8.74296
HEad  -16.2064 -32.4924 6.25484
LeftShoulder1  3.2457 -5.20672 -31.2564
LeftArm  21.6369 -20.9032 -23.613
LeftForeArm  -4.05366 -11.3302 -15.1866
LeftHand  -1.56702 -5.55598 16.8267
RightShoulder  16.7154 15.8186 72.5068
RightArm  35.456 11.8454 0.919128
RightForeArm  8.14508 17.6895 7.95547
RightHand  0.990605 21.2224 3.77653
LeftUpLeg  -0.62592 6.39562 10.758
LeftLeg  13.1388 -8.22377 0.588276
LeftFoot  -7.29147 -0.0256587 1.96699
LeftToes  1.25507e-010 -3.78807e-010 5.71421e-011
676
root  -66.2523 40.0831 -29.0423 -147.188 77.9477 -138.626
RightUpLeg  6.59898 9.23674 9.73887
RightLeg  0.517205 24.2774 -7.25098
RightFoot  -9.86726 -0.340564 20.9938
RightToes  5.82063e-011 0 -3.6325e-017
Spine  16.0671 2.87171 1.50068
Spine1  -1.44776 4.52398 -8.55973
HEad  -15.5457 -32.1491 5.89563
LeftShoulder1  3.26806 -5.29541 -31.1346
LeftArm  21.5991 -21.3638 -23.4146
LeftForeArm  -4.31769 -11.0581 -15.3985
LeftHand  -1.53207 -5.47022 16.5878
RightShoulder  16.4621 15.6055 72.2638
RightArm  34.5697 11.6841 0.724209
RightForeArm  8.42996 17.1334 8.40019
RightHand  1.12833 21.2936 4.35704
LeftUpLeg  -0.207428 6.76429 10.926
LeftLeg  13.6232 -7.69007 0.387052
LeftFoot  -7.68895 -0.0394609 2.68902
LeftToes  1.25507e-010 -3.78807e-010 5.71421e-011
677
root  -66.0692 40.0865 -29.1624 -145.475 78.6706 -136.847
RightUpLeg  6.099 10.8772 10.1107
RightLeg  1.68181 22.23 -6.89601
RightFoot  -9.6384 -0.371909 20.3774
RightToes  5.82063e-011 0 -3.6325e-017
Spine  16.042 2.77826 1.44928
Spine1  -1.34391 4.41305 -8.48919
HEad  -15.0532 -31.7151 5.49717
LeftShoulder1  3.27395 -5.28162 -31.2608
LeftArm  21.9612 -21.3851 -23.4566
LeftForeArm  -4.82731 -10.6478 -15.7274
LeftHand  -1.52059 -5.2336 16.8187
RightShoulder  16.0136 15.2012 71.901
RightArm  34.6729 11.3242 0.629136
RightForeArm  9.05254 16.7931 8.66116
RightHand  1.163 21.3639 4.49239
LeftUpLeg  0.444772 7.08122 10.7811
LeftLeg  13.519 -7.11168 0.402514
LeftFoot  -7.9976 -0.03596 2.88089
LeftToes  1.25507e-010 -3.78807e-010 5.71421e-011
678
root  -65.8845 40.1043 -29.2657 -144.61 79.3195 -135.961
RightUpLeg  5.65132 12.0837 9.85041
RightLeg  2.79067 19.1237 -6.53785
RightFoot  -9.21748 -0.424056 19.2994
RightToes  5.82063e-011 0 -3.6325e-017
Spine  15.9325 2.62263 1.46597
Spine1  -1.22715 4.24383 -8.40009
HEad  -14.7891 -31.2008 5.14818
LeftShoulder1  3.30371 -5.27749 -31.6195
LeftArm  22.5016 -21.0655 -23.6454
LeftForeArm  -5.2318 -9.93221 -16.2366
LeftHand  -1.55107 -5.10863 17.3407
RightShoulder  15.4296 14.6161 71.5866
RightArm  35.3505 10.6689 0.397007
RightForeArm  9.18453 16.7657 8.70143
RightHand  1.18583 21.2935 4.60431
LeftUpLeg  1.21354 7.36773 10.4876
LeftLeg  13.0251 -6.75241 0.459453
LeftFoot  -8.11105 -0.0358006 3.00062
LeftToes  1.25507e-010 -3.78807e-010 5.71421e-011
679
root  -65.6832 40.143 -29.3528 -143.302 80.1051 -134.59
RightUpLeg  5.36674 12.1662 9.0019
RightLeg  3.51636 16.6731 -6.30213
RightFoot  -8.88869 -0.451562 18.1104
RightToes  5.82063e-011 0 -3.6325e-017
Spine  15.7961 2.50086 1.61465
Spine1  -1.1115 4.13303 -8.33272
HEad  -14.6932 -30.3737 4.76262
LeftShoulder1  3.31875 -5.2213 -32.0355
LeftArm  23.0274 -20.2757 -24.126
LeftForeArm  -6.08923 -8.96974 -16.874
LeftHand  -1.45288 -5.01905 16.4104
RightShoulder  14.757 13.8728 71.4254
RightArm  35.7714 9.97258 0.00349642
RightForeArm  9.2411 16.5213 8.93301
RightHand  1.24482 21.3207 4.85224
LeftUpLeg  2.28896 7.72516 10.1966
LeftLeg  12.1038 -6.29516 0.587225
LeftFoot  -8.08638 -0.0362458 2.98833
LeftToes  1.25507e-010 -3.78807e-010 5.71421e-011
680
root  -65.4622 40.1744 -29.3979 -140.352 81.0953 -131.637
RightUpLeg  5.15143 11.2669 7.73273
RightLeg  3.64348 15.4167 -6.23868
RightFoot  -8.64609 -0.472414 17.44
RightToes  5.82063e-011 0 -3.6325e-017
Spine  15.5003 2.50248 1.82632
Spine1  -1.00262 4.15953 -8.33058
HEad  -14.4528 -29.6502 4.63293
LeftShoulder1  3.31874 -5.14009 -32.3926
LeftArm  22.9805 -18.9382 -24.9747
LeftForeArm  -5.76164 -7.54843 -17.5925
LeftHand  -1.43775 -4.83518 16.5246
RightShoulder  14.0299 13.0388 71.3405
RightArm  35.0581 9.20024 -0.412382
RightForeArm  10.015 15.7486 9.51727
RightHand  1.2416 21.256 4.85193
LeftUpLeg  3.39483 8.18389 10.0107
LeftLeg  11.1518 -5.64108 0.684341
LeftFoot  -8.07048 -0.0356355 2.94908
LeftToes  1.25507e-010 -3.78807e-010 5.71421e-011
681
root  -65.2427 40.202 -29.4093 -136.862 81.9679 -128.189
RightUpLeg  4.9945 9.06187 6.02816
RightLeg  3.03907 15.5709 -6.29446
RightFoot  -8.12222 -0.541836 17.1838
RightToes  5.82063e-011 0 -3.6325e-017
Spine  15.2954 2.47751 1.95052
Spine1  -1.10036 4.09943 -8.14782
HEad  -14.1204 -29.0852 4.74978
LeftShoulder1  3.31501 -5.01755 -32.8993
LeftArm  22.9082 -17.0438 -25.89
LeftForeArm  -5.45233 -6.23081 -18.1667
LeftHand  -1.40678 -4.86814 16.1296
RightShoulder  13.2373 12.1267 71.2495
RightArm  33.9334 8.36346 -0.949945
RightForeArm  11.1577 14.7833 10.2092
RightHand  1.23363 21.1573 4.83821
LeftUpLeg  4.42229 8.54745 9.9139
LeftLeg  10.1919 -5.04223 0.734327
LeftFoot  -8.06252 -0.0297084 2.73314
LeftToes  1.25507e-010 -3.78807e-010 5.71421e-011
